<svg xmlns="http://www.w3.org/2000/svg" viewBox="0 0 60 43.93">
<defs>
<style>.cls-1{fill:#fffffff;}</style>
</defs>
<g id="Layer_2" data-name="Layer 2">
<g id="artwork">
<path class="cls-1" d="M16.73,11.15a3,3,0,1,0-3-3A3,3,0,0,0,16.73,11.15Z"/>
<path class="cls-1" d="M16.23,19.56h0a6.39,6.39,0,0,0,4.47-5.44A5.28,5.28,0,0,0,20.35,12a4.5,4.5,0,0,1-.63.34c-6,2.56-11.07-.43-12.77-3.15,0,0-.8-.17-.51,1C7,12.33,10,15.36,14.07,16.5a18.23,18.23,0,0,1-.2,2.74,18.66,18.66,0,0,1-1.59,5.29h9a18.91,18.91,0,0,0,1.22-4.47,19.51,19.51,0,0,0,.2-2.27,11.78,11.78,0,0,1-8,3.36C14.65,21,14.4,20.16,16.23,19.56Z"/><path class="cls-1" d="M46.05,25.37a2.83,2.83,0,0,0-.83,1.91,1.3,1.3,0,0,0,.42,1,1.5,1.5,0,0,0,1.06.38A3.6,3.6,0,0,0,48.61,28a28.66,28.66,0,0,1-.49-4A5,5,0,0,0,46.05,25.37Z"/><path class="cls-1" d="M49.7,23.65c.1,1.27.21,2.29.32,3.07a9.45,9.45,0,0,0,1.73-3.21l-.39,0A8.13,8.13,0,0,0,49.7,23.65Z"/>
<polygon class="cls-1" points="33.43 25.59 36.87 25.59 35.13 20.9 33.43 25.59"/>
<path class="cls-1" d="M57.3,9.21H34.61V2.88A2.8,2.8,0,0,0,31.91,0H2.7A2.8,2.8,0,0,0,0,2.88V27.05a2.8,2.8,0,0,0,2.7,2.88h8l11.25,6.29-2.25-6.29h5.65v4.83A2.8,2.8,0,0,0,28,37.64h9.47l-2.25,6.29,12.44-6.29H57.3A2.8,2.8,0,0,0,60,34.76V12.09A2.8,2.8,0,0,0,57.3,9.21ZM34.86,14.66h2.72L35.2,17.23H33.67ZM28,9.21a2.8,2.8,0,0,0-2.7,2.88v16H2.7a1,1,0,0,1-.9-1.08V2.88A1,1,0,0,1,2.7,1.8H31.91a1,1,0,0,1,.9,1.08V9.21ZM38.8,30.59l-1.11-2.87h-5l-1,2.87H28.89L33.81,18h2.7l5.06,12.63Zm16.85-1.23a8.72,8.72,0,0,1-3.34,2.29l-.91-1.52c2.63-1.05,3.94-2.28,3.94-3.67a2.7,2.7,0,0,0-.54-1.62,3,3,0,0,0-1.44-1,10.49,10.49,0,0,1-2.94,4.79,5.12,5.12,0,0,0,.44,1l-1.56.67-.25-.64a4.66,4.66,0,0,1-2.58.75,2.76,2.76,0,0,1-2-.82,2.88,2.88,0,0,1-.82-2.11,4.39,4.39,0,0,1,1.19-3,7.07,7.07,0,0,1,3.18-2c0-.38,0-1,0-1.8L44.6,21l-.19-1.59L48,19l.13-2.16,1.69.1c-.08.43-.14,1-.21,1.84l5.21-.62.22,1.6-5.48.71,0,1.61a6.66,6.66,0,0,1,1.93-.22,6,6,0,0,1,3.8,1.28,4,4,0,0,1,1.61,3.22A4.49,4.49,0,0,1,55.65,29.36Z"/>
</g>
</g>
</svg>